<?xml version="1.0" encoding="UTF-8" standalone="no"?>
<!-- Created with Inkscape (http://www.inkscape.org/) -->

<svg
   xmlns:dc="http://purl.org/dc/elements/1.1/"
   xmlns:cc="http://creativecommons.org/ns#"
   xmlns:rdf="http://www.w3.org/1999/02/22-rdf-syntax-ns#"
   xmlns:svg="http://www.w3.org/2000/svg"
   xmlns="http://www.w3.org/2000/svg"
   xmlns:sodipodi="http://sodipodi.sourceforge.net/DTD/sodipodi-0.dtd"
   xmlns:inkscape="http://www.inkscape.org/namespaces/inkscape"
   width="110"
   height="60.000038"
   id="svg2"
   version="1.1"
   inkscape:version="0.48.1 r9760"
   sodipodi:docname="New document 1">
  <defs
     id="defs4" />
  <sodipodi:namedview
     id="base"
     pagecolor="#ffffff"
     bordercolor="#666666"
     borderopacity="1.0"
     inkscape:pageopacity="0.0"
     inkscape:pageshadow="2"
     inkscape:zoom="8"
     inkscape:cx="57.339228"
     inkscape:cy="32.092561"
     inkscape:document-units="px"
     inkscape:current-layer="layer1"
     showgrid="false"
     inkscape:window-width="1920"
     inkscape:window-height="1151"
     inkscape:window-x="0"
     inkscape:window-y="24"
     inkscape:window-maximized="1"
     fit-margin-top="5"
     fit-margin-left="5"
     fit-margin-bottom="5"
     fit-margin-right="5"
     showborder="true" />
  <metadata
     id="metadata7">
    <rdf:RDF>
      <cc:Work
         rdf:about="">
        <dc:format>image/svg+xml</dc:format>
        <dc:type
           rdf:resource="http://purl.org/dc/dcmitype/StillImage" />
        <dc:title></dc:title>
      </cc:Work>
    </rdf:RDF>
  </metadata>
  <g
     inkscape:label="Layer 1"
     inkscape:groupmode="layer"
     id="layer1"
     transform="translate(5.0000001,-997.36219)">
    <path
       style="fill:#24e202;fill-opacity:1;fill-rule:evenodd;stroke:none"
       d="M 5 5 L 5 9.15625 L 5 13.34375 L 5 17.5 L 5 21.65625 L 9.15625 21.65625 L 13.34375 21.65625 L 13.34375 17.5 L 17.5 17.5 L 21.65625 17.5 L 21.65625 21.65625 L 25.84375 21.65625 L 25.84375 17.5 L 30 17.5 L 30 13.34375 L 34.15625 13.34375 L 34.15625 9.15625 L 34.15625 5 L 30 5 L 25.84375 5 L 21.65625 5 L 17.5 5 L 13.34375 5 L 9.15625 5 L 5 5 z M 34.15625 13.34375 L 34.15625 17.5 L 38.34375 17.5 L 42.5 17.5 L 42.5 13.34375 L 38.34375 13.34375 L 34.15625 13.34375 z M 34.15625 17.5 L 30 17.5 L 30 21.65625 L 34.15625 21.65625 L 34.15625 17.5 z "
       id="rect25628"
       transform="translate(-5.0000001,997.36219)" />
    <rect
       style="fill:#24e202;fill-opacity:1;fill-rule:evenodd;stroke:none"
       id="rect25644"
       width="4.1666665"
       height="4.1666665"
       x="12.500002"
       y="1014.8622" />
    <rect
       y="1014.8622"
       x="8.3333349"
       height="4.1666665"
       width="4.1666665"
       id="rect25646"
       style="fill:#24e202;fill-opacity:1;fill-rule:evenodd;stroke:none" />
    <rect
       y="1014.8622"
       x="1.5376726e-06"
       height="4.1666665"
       width="4.1666665"
       id="rect25650"
       style="fill:#24e202;fill-opacity:1;fill-rule:evenodd;stroke:none" />
    <rect
       style="fill:#24e202;fill-opacity:1;fill-rule:evenodd;stroke:none"
       id="rect25652"
       width="4.1666665"
       height="4.1666665"
       x="1.5376726e-06"
       y="1014.8622" />
    <rect
       style="fill:#24e202;fill-opacity:1;fill-rule:evenodd;stroke:none"
       id="rect25696"
       width="4.1666665"
       height="4.1666665"
       x="29.166666"
       y="1006.5289" />
    <rect
       style="fill:#24e202;fill-opacity:1;fill-rule:evenodd;stroke:none"
       id="rect25704"
       width="4.1666665"
       height="4.1666665"
       x="29.166666"
       y="1010.6955" />
    <rect
       style="fill:#24e202;fill-opacity:1;fill-rule:evenodd;stroke:none"
       id="rect25712"
       width="4.1666665"
       height="4.1666665"
       x="16.666668"
       y="1014.8622" />
    <rect
       y="1014.8622"
       x="16.666668"
       height="4.1666665"
       width="4.1666665"
       id="rect25714"
       style="fill:#24e202;fill-opacity:1;fill-rule:evenodd;stroke:none" />
    <rect
       y="1014.8622"
       x="16.666668"
       height="4.1666665"
       width="4.1666665"
       id="rect25738"
       style="fill:#24e202;fill-opacity:1;fill-rule:evenodd;stroke:none" />
    <rect
       style="fill:#24e202;fill-opacity:1;fill-rule:evenodd;stroke:none"
       id="rect25804"
       width="4.1666665"
       height="4.1666665"
       x="33.333332"
       y="1002.3622" />
    <path
       style="fill:#1dbe01;fill-opacity:1;fill-rule:evenodd;stroke:none"
       d="m 8.3333334,1014.8622 0,4.1667 4.1666666,0 4.166667,0 0,-4.1667 -4.166667,0 -4.1666666,0 z"
       id="rect25670"
       inkscape:connector-curvature="0" />
    <path
       style="fill:#1dbe01;fill-opacity:1;fill-rule:evenodd;stroke:none"
       d="m 29.166667,1002.3622 0,4.1667 0,4.1666 4.166667,0 4.166666,0 0,4.1667 -4.166666,0 -4.166667,0 0,4.1667 -4.166667,0 0,-4.1667 -4.166667,0 0,4.1667 -4.166666,0 0,4.1666 4.166666,0 4.166667,0 0,4.1667 4.166667,0 0,-4.1667 4.166667,0 0,-4.1666 4.166666,0 4.166667,0 0,-4.1667 4.166667,0 0,-4.1667 4.166666,0 0,-4.1666 0,-4.1667 -4.166666,0 -4.166667,0 -4.166667,0 0,4.1667 -4.166666,0 0,-4.1667 -4.166667,0 z m -4.166667,12.5 4.166667,0 0,-4.1667 -4.166667,0 0,4.1667 z"
       id="rect25702"
       inkscape:connector-curvature="0" />
    <rect
       y="1010.6955"
       x="45.833332"
       height="4.1666665"
       width="4.1666665"
       id="rect25766"
       style="fill:#149600;fill-opacity:1;fill-rule:evenodd;stroke:none" />
    <path
       style="fill:#25e301;fill-opacity:1;fill-rule:evenodd;stroke:none"
       d="M 46.65625 17.5 L 46.65625 21.65625 L 50.84375 21.65625 L 55 21.65625 L 55 17.5 L 50.84375 17.5 L 46.65625 17.5 z "
       transform="translate(-5.0000001,997.36219)"
       id="rect25768" />
    <path
       style="fill:#25e402;fill-opacity:1;fill-rule:evenodd;stroke:none"
       d="M 21.65625 25.84375 L 21.65625 30 L 21.65625 34.15625 L 25.84375 34.15625 L 25.84375 30 L 30 30 L 30 25.84375 L 25.84375 25.84375 L 21.65625 25.84375 z "
       transform="translate(-5.0000001,997.36219)"
       id="rect25902" />
    <path
       style="fill:#159600;fill-opacity:1;fill-rule:evenodd;stroke:none"
       d="M 34.15625 25.84375 L 34.15625 30 L 30 30 L 30 34.15625 L 34.15625 34.15625 L 38.34375 34.15625 L 38.34375 30 L 38.34375 25.84375 L 34.15625 25.84375 z "
       transform="translate(-5.0000001,997.36219)"
       id="rect25908" />
    <path
       style="fill:#1dbe01;fill-opacity:1;fill-rule:evenodd;stroke:none"
       d="M 25.84375 30 L 25.84375 34.15625 L 21.65625 34.15625 L 21.65625 38.34375 L 21.65625 42.5 L 21.65625 46.65625 L 21.65625 50.84375 L 25.84375 50.84375 L 25.84375 46.65625 L 30 46.65625 L 34.15625 46.65625 L 34.15625 42.5 L 38.34375 42.5 L 38.34375 38.34375 L 38.34375 34.15625 L 34.15625 34.15625 L 30 34.15625 L 30 30 L 25.84375 30 z M 25.84375 50.84375 L 25.84375 55 L 30 55 L 30 50.84375 L 25.84375 50.84375 z M 25.84375 38.34375 L 30 38.34375 L 30 42.5 L 25.84375 42.5 L 25.84375 38.34375 z "
       transform="translate(-5.0000001,997.36219)"
       id="rect25912" />
    <path
       style="fill:#159600;fill-opacity:1;fill-rule:evenodd;stroke:none"
       d="M 34.15625 42.5 L 34.15625 46.65625 L 30 46.65625 L 25.84375 46.65625 L 25.84375 50.84375 L 30 50.84375 L 30 55 L 34.15625 55 L 38.34375 55 L 38.34375 50.84375 L 38.34375 46.65625 L 38.34375 42.5 L 34.15625 42.5 z M 25.84375 50.84375 L 21.65625 50.84375 L 21.65625 55 L 25.84375 55 L 25.84375 50.84375 z "
       transform="translate(-5.0000001,997.36219)"
       id="rect25970" />
    <rect
       style="fill:#149600;fill-opacity:1;fill-rule:evenodd;stroke:none"
       id="rect25992"
       width="4.1666665"
       height="4.1666665"
       x="20.833336"
       y="1035.6956" />
    <path
       style="fill:#149500;fill-opacity:1;fill-rule:evenodd;stroke:none"
       d="M 63.34375 50.84375 L 63.34375 55 L 67.5 55 L 67.5 50.84375 L 63.34375 50.84375 z "
       transform="translate(-5.0000001,997.36219)"
       id="rect26168" />
    <path
       style="fill:#1dbd00;fill-opacity:1;fill-rule:evenodd;stroke:none"
       d="M 55 21.65625 L 55 25.84375 L 55 30 L 55 34.15625 L 59.15625 34.15625 L 59.15625 30 L 59.15625 25.84375 L 63.34375 25.84375 L 67.5 25.84375 L 67.5 21.65625 L 63.34375 21.65625 L 59.15625 21.65625 L 55 21.65625 z "
       transform="translate(-5.0000001,997.36219)"
       id="rect26212" />
    <path
       style="fill:#159600;fill-opacity:1;fill-rule:evenodd;stroke:none"
       d="M 67.5 21.65625 L 67.5 25.84375 L 63.34375 25.84375 L 59.15625 25.84375 L 59.15625 30 L 59.15625 34.15625 L 59.15625 38.34375 L 63.34375 38.34375 L 63.34375 34.15625 L 67.5 34.15625 L 67.5 30 L 71.65625 30 L 71.65625 25.84375 L 71.65625 21.65625 L 67.5 21.65625 z M 59.15625 38.34375 L 55 38.34375 L 55 42.5 L 59.15625 42.5 L 59.15625 38.34375 z "
       transform="translate(-5.0000001,997.36219)"
       id="rect26176" />
    <rect
       y="1014.8622"
       x="66.666664"
       height="4.1666665"
       width="4.1666665"
       id="rect26360"
       style="fill:#159700;fill-opacity:1;fill-rule:evenodd;stroke:none" />
    <path
       style="fill:#159700;fill-opacity:1;fill-rule:evenodd;stroke:none"
       d="M 71.65625 5 L 71.65625 9.15625 L 71.65625 13.34375 L 75.84375 13.34375 L 75.84375 9.15625 L 80 9.15625 L 80 5 L 75.84375 5 L 71.65625 5 z "
       transform="translate(-5.0000001,997.36219)"
       id="rect26336" />
    <path
       style="fill:#169802;fill-opacity:1;fill-rule:evenodd;stroke:none"
       d="M 84.15625 9.15625 L 84.15625 13.34375 L 88.34375 13.34375 L 88.34375 9.15625 L 84.15625 9.15625 z M 88.34375 13.34375 L 88.34375 17.5 L 92.5 17.5 L 92.5 13.34375 L 88.34375 13.34375 z M 88.34375 17.5 L 84.15625 17.5 L 84.15625 21.65625 L 88.34375 21.65625 L 88.34375 17.5 z "
       transform="translate(-5.0000001,997.36219)"
       id="rect26342" />
    <path
       style="fill:#1dbf01;fill-opacity:1;fill-rule:evenodd;stroke:none"
       d="M 92.5 13.34375 L 92.5 17.5 L 88.34375 17.5 L 88.34375 21.65625 L 92.5 21.65625 L 96.65625 21.65625 L 96.65625 17.5 L 100.84375 17.5 L 100.84375 13.34375 L 96.65625 13.34375 L 92.5 13.34375 z M 100.84375 17.5 L 100.84375 21.65625 L 105 21.65625 L 105 17.5 L 100.84375 17.5 z "
       transform="translate(-5.0000001,997.36219)"
       id="rect26414" />
    <path
       style="fill:#0a6300;fill-opacity:1;fill-rule:evenodd;stroke:none"
       d="M 80 5 L 80 9.15625 L 75.84375 9.15625 L 75.84375 13.34375 L 71.65625 13.34375 L 71.65625 17.5 L 75.84375 17.5 L 75.84375 21.65625 L 80 21.65625 L 84.15625 21.65625 L 84.15625 17.5 L 88.34375 17.5 L 88.34375 13.34375 L 84.15625 13.34375 L 84.15625 9.15625 L 88.34375 9.15625 L 88.34375 13.34375 L 92.5 13.34375 L 96.65625 13.34375 L 96.65625 9.15625 L 100.84375 9.15625 L 100.84375 5 L 96.65625 5 L 92.5 5 L 88.34375 5 L 84.15625 5 L 80 5 z "
       transform="translate(-5.0000001,997.36219)"
       id="rect26338" />
    <path
       style="fill:#149600;fill-opacity:1;fill-rule:evenodd;stroke:none"
       d="M 100.84375 5 L 100.84375 9.15625 L 96.65625 9.15625 L 96.65625 13.34375 L 100.84375 13.34375 L 100.84375 17.5 L 105 17.5 L 105 13.34375 L 105 9.15625 L 105 5 L 100.84375 5 z M 100.84375 17.5 L 96.65625 17.5 L 96.65625 21.65625 L 100.84375 21.65625 L 100.84375 17.5 z "
       transform="translate(-5.0000001,997.36219)"
       id="rect26402" />
    <path
       style="fill:#096200;fill-opacity:1;fill-rule:evenodd;stroke:none"
       d="M 67.5 30 L 67.5 34.15625 L 63.34375 34.15625 L 63.34375 38.34375 L 59.15625 38.34375 L 59.15625 42.5 L 55 42.5 L 55 46.65625 L 55 50.84375 L 55 55 L 59.15625 55 L 63.34375 55 L 63.34375 50.84375 L 67.5 50.84375 L 67.5 55 L 71.65625 55 L 75.84375 55 L 75.84375 50.84375 L 71.65625 50.84375 L 71.65625 46.65625 L 67.5 46.65625 L 67.5 42.5 L 71.65625 42.5 L 71.65625 46.65625 L 75.84375 46.65625 L 75.84375 42.5 L 75.84375 38.34375 L 71.65625 38.34375 L 71.65625 34.15625 L 71.65625 30 L 67.5 30 z M 59.15625 38.34375 L 59.15625 34.15625 L 55 34.15625 L 55 38.34375 L 59.15625 38.34375 z "
       transform="translate(-5.0000001,997.36219)"
       id="rect26150" />
    <rect
       style="fill:#0a6300;fill-opacity:1;fill-rule:evenodd;stroke:none"
       id="rect26614"
       width="4.1666665"
       height="4.1666665"
       x="75"
       y="1035.6956" />
    <path
       style="fill:#1dbf02;fill-opacity:1;fill-rule:evenodd;stroke:none"
       d="M 92.5 38.34375 L 92.5 42.5 L 96.65625 42.5 L 96.65625 38.34375 L 92.5 38.34375 z M 96.65625 42.5 L 96.65625 46.65625 L 92.5 46.65625 L 92.5 50.84375 L 88.34375 50.84375 L 84.15625 50.84375 L 84.15625 55 L 88.34375 55 L 92.5 55 L 96.65625 55 L 100.84375 55 L 105 55 L 105 50.84375 L 105 46.65625 L 105 42.5 L 100.84375 42.5 L 96.65625 42.5 z M 84.15625 50.84375 L 84.15625 46.65625 L 80 46.65625 L 80 50.84375 L 84.15625 50.84375 z "
       transform="translate(-5.0000001,997.36219)"
       id="rect26596" />
    <path
       style="fill:#149500;fill-opacity:1;fill-rule:evenodd;stroke:none"
       d="M 75.84375 38.34375 L 75.84375 42.5 L 75.84375 46.65625 L 71.65625 46.65625 L 71.65625 50.84375 L 75.84375 50.84375 L 75.84375 55 L 80 55 L 84.15625 55 L 84.15625 50.84375 L 80 50.84375 L 80 46.65625 L 84.15625 46.65625 L 84.15625 50.84375 L 88.34375 50.84375 L 92.5 50.84375 L 92.5 46.65625 L 96.65625 46.65625 L 96.65625 42.5 L 92.5 42.5 L 92.5 38.34375 L 88.34375 38.34375 L 84.15625 38.34375 L 84.15625 42.5 L 80 42.5 L 80 38.34375 L 75.84375 38.34375 z M 96.65625 42.5 L 100.84375 42.5 L 105 42.5 L 105 38.34375 L 100.84375 38.34375 L 96.65625 38.34375 L 96.65625 42.5 z M 71.65625 46.65625 L 71.65625 42.5 L 67.5 42.5 L 67.5 46.65625 L 71.65625 46.65625 z "
       transform="translate(-5.0000001,997.36219)"
       id="rect26156" />
  </g>
</svg>
