<?xml version="1.0" encoding="UTF-8" standalone="no"?>
<!-- Created with Inkscape (http://www.inkscape.org/) -->

<svg
   xmlns:dc="http://purl.org/dc/elements/1.1/"
   xmlns:cc="http://creativecommons.org/ns#"
   xmlns:rdf="http://www.w3.org/1999/02/22-rdf-syntax-ns#"
   xmlns:svg="http://www.w3.org/2000/svg"
   xmlns="http://www.w3.org/2000/svg"
   xmlns:sodipodi="http://sodipodi.sourceforge.net/DTD/sodipodi-0.dtd"
   xmlns:inkscape="http://www.inkscape.org/namespaces/inkscape"
   width="450"
   height="300"
   id="svg2"
   version="1.1"
   inkscape:version="0.48.0 r9654"
   sodipodi:docname="drawing.svg">
  <defs
     id="defs4" />
  <sodipodi:namedview
     id="base"
     pagecolor="#ffffff"
     bordercolor="#666666"
     borderopacity="1.0"
     inkscape:pageopacity="0.0"
     inkscape:pageshadow="2"
     inkscape:zoom="1"
     inkscape:cx="246.92324"
     inkscape:cy="213.54587"
     inkscape:document-units="px"
     inkscape:current-layer="layer1"
     showgrid="true"
     fit-margin-top="0"
     fit-margin-left="0"
     fit-margin-right="0"
     fit-margin-bottom="0"
     inkscape:window-width="1350"
     inkscape:window-height="878"
     inkscape:window-x="89"
     inkscape:window-y="0"
     inkscape:window-maximized="1">
    <inkscape:grid
       type="xygrid"
       id="grid3006"
       empspacing="5"
       visible="true"
       enabled="true"
       snapvisiblegridlinesonly="true" />
  </sodipodi:namedview>
  <metadata
     id="metadata7">
    <rdf:RDF>
      <cc:Work
         rdf:about="">
        <dc:format>image/svg+xml</dc:format>
        <dc:type
           rdf:resource="http://purl.org/dc/dcmitype/StillImage" />
        <dc:title />
      </cc:Work>
    </rdf:RDF>
  </metadata>
  <g
     inkscape:label="Layer 1"
     inkscape:groupmode="layer"
     id="layer1"
     transform="translate(-140,-112.36218)">
    <path
       style="fill:#026664;fill-opacity:1;stroke:none"
       d="m 140,112.36218 450,0 0,300 -450,0 z"
       id="rect3000" />
    <g
       id="g3049"
       transform="translate(-5.0419335,0)">
      <g
         style="font-size:73.1600647px;font-style:normal;font-variant:normal;font-weight:bold;font-stretch:normal;line-height:125%;letter-spacing:0px;word-spacing:0px;fill:#000000;fill-opacity:1;stroke:none;font-family:Coliseo;-inkscape-font-specification:Coliseo Bold"
         id="text3002">
        <path
           d="m 206.74557,139.9607 c -1.99974,4e-5 -3.63365,0.34146 -4.90172,1.02424 -1.26814,0.6341 -1.90219,1.75588 -1.90216,3.36536 -3e-5,0.82919 0.17068,1.78027 0.51212,2.85324 0.39016,1.07306 0.97544,2.268 1.75584,3.58485 l 8.41341,16.31469 c 1.26806,2.73133 1.90212,5.29193 1.90216,7.68181 -4e-5,4.53593 -2.0973,8.09638 -6.29177,10.68137 -4.19454,2.53621 -9.1938,3.80432 -14.99781,3.80432 -3.85311,0 -7.09654,-0.12193 -9.73029,-0.3658 -2.63377,-0.19509 -5.46262,-0.60967 -8.48657,-1.24372 l 0,-5.99913 c 3.36536,10e-6 5.70648,-0.51211 7.02337,-1.53636 1.36564,-1.073 2.04847,-2.41427 2.04848,-4.0238 -1e-5,-0.82914 -0.0976,-1.51196 -0.29264,-2.04848 -0.14633,-0.58527 -0.43897,-1.36564 -0.87792,-2.34113 l -8.41341,-18.72897 c -1.21933,-3.51165 -1.829,-6.55998 -1.829,-9.14501 0,-3.90182 1.48759,-6.90138 4.46277,-8.99869 2.97516,-2.0972 7.80372,-3.14582 14.48569,-3.14588 3.60921,6e-5 6.51122,0.19515 8.70605,0.58528 2.19477,0.34147 5.04801,0.85359 8.55972,1.53636 l -0.14632,6.14545"
           style=""
           id="path3004" />
        <path
           d="m 243.08441,132.79101 0,56.04061 -28.02031,0 0,-56.04061 28.02031,0"
           style=""
           id="path3006" />
        <path
           d="m 268.61613,188.83162 c -8.48658,0 -13.97358,-1.34127 -16.46101,-4.0238 -2.43867,-2.73131 -3.65801,-6.77949 -3.65801,-12.14458 0,-5.12118 2.46306,-8.70602 7.38917,-10.75452 4.9261,-2.04846 11.80314,-3.0727 20.63114,-3.07273 0.14629,-0.68279 0.21945,-1.26807 0.21948,-1.75584 -3e-5,-1.56071 -0.58531,-2.65811 -1.75584,-3.2922 -1.17059,-0.63402 -2.8045,-0.95105 -4.90173,-0.95108 -1.26813,3e-5 -3.58486,0.19513 -6.9502,0.58528 -3.31661,0.34145 -5.53579,0.51215 -6.65757,0.51212 l 0,-4.82857 c 2.87762,-1.07297 6.65755,-1.95089 11.33981,-2.63376 4.68222,-0.73156 9.24253,-1.09736 13.68093,-1.0974 5.02362,4e-5 10.21798,1.02428 15.5831,3.07272 5.41379,2.04852 8.12071,4.56035 8.12076,7.53549 l 0,32.84887 -36.58003,0 m 8.48657,-21.87486 c -1.75587,0.14634 -3.09714,0.53653 -4.02381,1.17056 -0.87794,0.63407 -1.3169,1.58515 -1.31688,2.85324 l 0,6.43809 c -2e-5,1.31689 0.53649,2.34113 1.60952,3.07272 1.07299,0.68284 2.31671,1.02425 3.73117,1.02424 l 0,-14.55885"
           style=""
           id="path3009" />
        <path
           d="m 342.83016,152.98319 c -1.95097,3e-5 -3.58488,0.2439 -4.90173,0.7316 -1.26813,0.48777 -1.90219,1.3413 -1.90216,2.5606 -3e-5,1.21937 0.73157,2.78011 2.1948,4.68224 l 8.41341,11.99826 c 1.17052,1.95094 1.7558,3.82872 1.75584,5.63332 -4e-5,3.41414 -2.04852,6.07229 -6.14544,7.97445 -4.04822,1.90216 -8.94994,2.85324 -14.70518,2.85324 -6.58442,0 -12.48599,-0.39019 -17.70473,-1.17056 l 0,-4.53593 c 3.26781,1e-5 5.56015,-0.36579 6.87704,-1.0974 1.31687,-0.78036 1.97531,-1.75583 1.97532,-2.9264 -10e-6,-0.63404 -0.0975,-1.17055 -0.29264,-1.60952 -0.14633,-0.48772 -0.43897,-1.04862 -0.87792,-1.68268 l -8.12076,-13.82725 c -1.21934,-2.58496 -1.829,-4.82854 -1.82901,-6.73073 10e-6,-2.82882 1.43882,-4.99923 4.31645,-6.51125 2.87762,-1.5607 7.55986,-2.34108 14.04673,-2.34112 3.17025,4e-5 5.60892,0.0976 7.31601,0.29264 1.75581,0.14636 4.99924,0.51216 9.73029,1.0974 l -0.14632,4.60909"
           style=""
           id="path3011" />
        <path
           d="m 379.25929,132.79101 0,14.63201 c 4.09693,-0.97542 7.24281,-1.68264 9.43765,-2.12164 2.24353,-0.43892 4.65781,-0.6584 7.24284,-0.65844 2.63372,4e-5 5.07238,0.34146 7.31601,1.02424 2.29229,0.6341 4.14568,1.92659 5.56016,3.87748 1.41437,1.9022 2.12159,3.99946 2.12165,6.29177 l 0,32.99519 -25.53287,0 -0.14632,-32.99519 c -3e-5,-1.90213 -0.99988,-2.85321 -2.99956,-2.85324 -1.99974,3e-5 -2.99959,0.95111 -2.99956,2.85324 l 0,32.99519 -28.02031,0 0,-56.04061 28.02031,0"
           style=""
           id="path3013" />
        <path
           d="m 444.25972,188.83162 c -9.31573,0 -16.72928,-1.51197 -22.24066,-4.53592 -5.46262,-3.07272 -8.19393,-8.4134 -8.19393,-16.02206 0,-8.24267 2.34112,-14.14424 7.02337,-17.70473 4.68223,-3.56042 12.48597,-5.34065 23.41122,-5.34069 l 0,-12.58353 28.02031,0 0,56.18693 -28.02031,0 m -0.14632,-32.99519 c -1.95096,3e-5 -3.65803,0.26829 -5.1212,0.80476 -1.46323,0.53654 -2.19483,1.46323 -2.19481,2.78008 l 0,18.29002 c -2e-5,1.17057 0.78035,2.07288 2.34113,2.70692 1.60949,0.63406 3.26778,0.95109 4.97488,0.95108 l 0,-25.53286"
           style=""
           id="path3015" />
        <path
           d="m 531.29161,167.981 c -5e-5,6.09669 -2.70697,11.29105 -8.12076,15.58309 -5.41389,4.29206 -11.94952,6.43809 -19.6069,6.43809 -7.60867,0 -14.11991,-2.12164 -19.53374,-6.36493 -5.36507,-4.29204 -8.04761,-9.51079 -8.04761,-15.65625 0,-6.09664 2.70692,-11.33978 8.12077,-15.72941 5.41383,-4.38957 11.90069,-6.58437 19.46058,-6.58441 7.65738,4e-5 14.19301,2.17046 19.6069,6.51125 5.41379,4.34086 8.12071,9.60838 8.12076,15.80257 m -31.45882,-10.60821 0,21.4359 c -3e-5,1.80462 0.21945,3.1215 0.65844,3.95064 0.48771,0.82916 1.56072,1.24373 3.21904,1.24372 1.36562,1e-5 2.29232,-0.26824 2.78008,-0.80476 0.53648,-0.5365 0.80473,-1.9997 0.80476,-4.3896 l 0,-21.14326 c -3e-5,-2.58495 -0.26828,-4.19447 -0.80476,-4.82856 -0.53654,-0.68279 -1.46323,-1.02421 -2.78008,-1.02424 -1.31691,3e-5 -2.29237,0.31706 -2.9264,0.95108 -0.63408,0.63409 -0.95111,2.17045 -0.95108,4.60908"
           style=""
           id="path3017" />
        <path
           d="m 559.26164,132.64469 8.48656,0 0,14.77833 3.65801,0 0,8.41341 -3.65801,0 0,32.99519 -28.0203,0 0,-32.99519 -3.73117,0 0,-8.41341 c 5.99912,-0.8291 10.8033,-2.34108 14.41254,-4.53592 3.65798,-2.24353 6.60877,-5.65766 8.85237,-10.24241"
           style=""
           id="path3019" />
      </g>
      <g
         style="font-size:73.1600647px;font-style:normal;font-variant:normal;font-weight:bold;font-stretch:normal;line-height:125%;letter-spacing:0px;word-spacing:0px;fill:#ffffff;fill-opacity:1;stroke:none;font-family:Coliseo;-inkscape-font-specification:Coliseo Bold"
         id="text2996">
        <path
           d="m 204.74557,137.9607 c -1.99974,4e-5 -3.63365,0.34146 -4.90172,1.02424 -1.26814,0.6341 -1.90219,1.75588 -1.90216,3.36536 -3e-5,0.82919 0.17068,1.78027 0.51212,2.85324 0.39016,1.07306 0.97544,2.268 1.75584,3.58485 l 8.41341,16.31469 c 1.26806,2.73133 1.90212,5.29193 1.90216,7.68181 -4e-5,4.53593 -2.0973,8.09638 -6.29177,10.68137 -4.19454,2.53621 -9.1938,3.80432 -14.99781,3.80432 -3.85311,0 -7.09654,-0.12193 -9.73029,-0.3658 -2.63377,-0.19509 -5.46262,-0.60967 -8.48657,-1.24372 l 0,-5.99913 c 3.36536,10e-6 5.70648,-0.51211 7.02337,-1.53636 1.36564,-1.073 2.04847,-2.41427 2.04848,-4.0238 -1e-5,-0.82914 -0.0976,-1.51196 -0.29264,-2.04848 -0.14633,-0.58527 -0.43897,-1.36564 -0.87792,-2.34113 l -8.41341,-18.72897 c -1.21933,-3.51165 -1.829,-6.55998 -1.829,-9.14501 0,-3.90182 1.48759,-6.90138 4.46277,-8.99869 2.97516,-2.0972 7.80372,-3.14582 14.48569,-3.14588 3.60921,6e-5 6.51122,0.19515 8.70605,0.58528 2.19477,0.34147 5.04801,0.85359 8.55972,1.53636 l -0.14632,6.14545"
           style=""
           id="path3022" />
        <path
           d="m 241.08441,130.79101 0,56.04061 -28.02031,0 0,-56.04061 28.02031,0"
           style=""
           id="path3024" />
        <path
           d="m 266.61613,186.83162 c -8.48658,0 -13.97358,-1.34127 -16.46101,-4.0238 -2.43867,-2.73131 -3.65801,-6.77949 -3.65801,-12.14458 0,-5.12118 2.46306,-8.70602 7.38917,-10.75452 4.9261,-2.04846 11.80314,-3.0727 20.63114,-3.07273 0.14629,-0.68279 0.21945,-1.26807 0.21948,-1.75584 -3e-5,-1.56071 -0.58531,-2.65811 -1.75584,-3.2922 -1.17059,-0.63402 -2.8045,-0.95105 -4.90173,-0.95108 -1.26813,3e-5 -3.58486,0.19513 -6.9502,0.58528 -3.31661,0.34145 -5.53579,0.51215 -6.65757,0.51212 l 0,-4.82857 c 2.87762,-1.07297 6.65755,-1.95089 11.33981,-2.63376 4.68222,-0.73156 9.24253,-1.09736 13.68093,-1.0974 5.02362,4e-5 10.21798,1.02428 15.5831,3.07272 5.41379,2.04852 8.12071,4.56035 8.12076,7.53549 l 0,32.84887 -36.58003,0 m 8.48657,-21.87486 c -1.75587,0.14634 -3.09714,0.53653 -4.02381,1.17056 -0.87794,0.63407 -1.3169,1.58515 -1.31688,2.85324 l 0,6.43809 c -2e-5,1.31689 0.53649,2.34113 1.60952,3.07272 1.07299,0.68284 2.31671,1.02425 3.73117,1.02424 l 0,-14.55885"
           style=""
           id="path3026" />
        <path
           d="m 340.83016,150.98319 c -1.95097,3e-5 -3.58488,0.2439 -4.90173,0.7316 -1.26813,0.48777 -1.90219,1.3413 -1.90216,2.5606 -3e-5,1.21937 0.73157,2.78011 2.1948,4.68224 l 8.41341,11.99826 c 1.17052,1.95094 1.7558,3.82872 1.75584,5.63332 -4e-5,3.41414 -2.04852,6.07229 -6.14544,7.97445 -4.04822,1.90216 -8.94994,2.85324 -14.70518,2.85324 -6.58442,0 -12.48599,-0.39019 -17.70473,-1.17056 l 0,-4.53593 c 3.26781,1e-5 5.56015,-0.36579 6.87704,-1.0974 1.31687,-0.78036 1.97531,-1.75583 1.97532,-2.9264 -10e-6,-0.63404 -0.0975,-1.17055 -0.29264,-1.60952 -0.14633,-0.48772 -0.43897,-1.04862 -0.87792,-1.68268 l -8.12076,-13.82725 c -1.21934,-2.58496 -1.829,-4.82854 -1.82901,-6.73073 10e-6,-2.82882 1.43882,-4.99923 4.31645,-6.51125 2.87762,-1.5607 7.55986,-2.34108 14.04673,-2.34112 3.17025,4e-5 5.60892,0.0976 7.31601,0.29264 1.75581,0.14636 4.99924,0.51216 9.73029,1.0974 l -0.14632,4.60909"
           style=""
           id="path3028" />
        <path
           d="m 377.25929,130.79101 0,14.63201 c 4.09693,-0.97542 7.24281,-1.68264 9.43765,-2.12164 2.24353,-0.43892 4.65781,-0.6584 7.24284,-0.65844 2.63372,4e-5 5.07238,0.34146 7.31601,1.02424 2.29229,0.6341 4.14568,1.92659 5.56016,3.87748 1.41437,1.9022 2.12159,3.99946 2.12165,6.29177 l 0,32.99519 -25.53287,0 -0.14632,-32.99519 c -3e-5,-1.90213 -0.99988,-2.85321 -2.99956,-2.85324 -1.99974,3e-5 -2.99959,0.95111 -2.99956,2.85324 l 0,32.99519 -28.02031,0 0,-56.04061 28.02031,0"
           style=""
           id="path3030" />
        <path
           d="m 442.25972,186.83162 c -9.31573,0 -16.72928,-1.51197 -22.24066,-4.53592 -5.46262,-3.07272 -8.19393,-8.4134 -8.19393,-16.02206 0,-8.24267 2.34112,-14.14424 7.02337,-17.70473 4.68223,-3.56042 12.48597,-5.34065 23.41122,-5.34069 l 0,-12.58353 28.02031,0 0,56.18693 -28.02031,0 m -0.14632,-32.99519 c -1.95096,3e-5 -3.65803,0.26829 -5.1212,0.80476 -1.46323,0.53654 -2.19483,1.46323 -2.19481,2.78008 l 0,18.29002 c -2e-5,1.17057 0.78035,2.07288 2.34113,2.70692 1.60949,0.63406 3.26778,0.95109 4.97488,0.95108 l 0,-25.53286"
           style=""
           id="path3032" />
        <path
           d="m 529.29161,165.981 c -5e-5,6.09669 -2.70697,11.29105 -8.12076,15.58309 -5.41389,4.29206 -11.94952,6.43809 -19.6069,6.43809 -7.60867,0 -14.11991,-2.12164 -19.53374,-6.36493 -5.36507,-4.29204 -8.04761,-9.51079 -8.04761,-15.65625 0,-6.09664 2.70692,-11.33978 8.12077,-15.72941 5.41383,-4.38957 11.90069,-6.58437 19.46058,-6.58441 7.65738,4e-5 14.19301,2.17046 19.6069,6.51125 5.41379,4.34086 8.12071,9.60838 8.12076,15.80257 m -31.45882,-10.60821 0,21.4359 c -3e-5,1.80462 0.21945,3.1215 0.65844,3.95064 0.48771,0.82916 1.56072,1.24373 3.21904,1.24372 1.36562,1e-5 2.29232,-0.26824 2.78008,-0.80476 0.53648,-0.5365 0.80473,-1.9997 0.80476,-4.3896 l 0,-21.14326 c -3e-5,-2.58495 -0.26828,-4.19447 -0.80476,-4.82856 -0.53654,-0.68279 -1.46323,-1.02421 -2.78008,-1.02424 -1.31691,3e-5 -2.29237,0.31706 -2.9264,0.95108 -0.63408,0.63409 -0.95111,2.17045 -0.95108,4.60908"
           style=""
           id="path3034" />
        <path
           d="m 557.26164,130.64469 8.48656,0 0,14.77833 3.65801,0 0,8.41341 -3.65801,0 0,32.99519 -28.0203,0 0,-32.99519 -3.73117,0 0,-8.41341 c 5.99912,-0.8291 10.8033,-2.34108 14.41254,-4.53592 3.65798,-2.24353 6.60877,-5.65766 8.85237,-10.24241"
           style=""
           id="path3036" />
      </g>
    </g>
    <g
       id="g3043"
       transform="matrix(1.3307985,0,0,1.3307985,-93.95913,-71.903075)">
      <path
         transform="matrix(0.55624997,0,0,0.55624997,139.31251,152.86073)"
         style="fill:#000000;fill-opacity:1;stroke:none"
         d="m 470,312.36218 c 0,22.09139 -17.90861,40 -40,40 -22.09139,0 -40,-17.90861 -40,-40 0,-22.09139 17.90861,-40 40,-40 22.09139,0 40,17.90861 40,40 z"
         id="path3033" />
      <path
         style="fill:#000000;fill-opacity:1;stroke:none"
         d="m 291,349.36218 28,0 69,-130 -28,0 z"
         id="path3035"
         inkscape:connector-curvature="0"
         sodipodi:nodetypes="ccccc" />
      <path
         transform="matrix(0.55624997,0,0,0.55624997,137.31251,150.86073)"
         style="fill:#ffffff;fill-opacity:1;stroke:none"
         d="m 470,312.36218 c 0,22.09139 -17.90861,40 -40,40 -22.09139,0 -40,-17.90861 -40,-40 0,-22.09139 17.90861,-40 40,-40 22.09139,0 40,17.90861 40,40 z"
         id="path3010" />
      <path
         sodipodi:nodetypes="ccccc"
         inkscape:connector-curvature="0"
         id="path3008"
         d="m 289,347.36218 28,0 69,-130 -28,0 z"
         style="fill:#ffffff;fill-opacity:1;stroke:none" />
    </g>
  </g>
</svg>
